# xmcd
#
# Track frame offsets: 
#        150
#        12701
#        28209
#        39844
#        58905
#        72885
#        93001
#        104901
#        126872
#        141234
#        157291
#        172909
#
# Disc length: 2563 seconds
#
# Revision: 1
# Processed by: cddbd v1.4PL0 Copyright (c) Steve Scherf et al.
# Submitted via: ExactAudioCopy v0.95a4
#
DISCID=ad0a010c
DTITLE=Nina Hagen - Big Band Explosion
DYEAR=2003
DGENRE=Jazz
TTITLE0=Let me entertain you
TTITLE1=Sugar blues
TTITLE2=I want to be happy
TTITLE3=The Lady loves me (duet with Lucas Alexander)
TTITLE4=Rythm and Romance
TTITLE5=Rainbow
TTITLE6=If you ever should leave
TTITLE7=Fever
TTITLE8=Love and Kisses
TTITLE9=All over nothing @ all
TTITLE10=Let's call the whole thing off (duet with Lucas Alexander)
TTITLE11=Starlit Hour
EXTD=YEAR: 2003
EXTT0=
EXTT1=
EXTT2=
EXTT3=
EXTT4=
EXTT5=
EXTT6=
EXTT7=
EXTT8=
EXTT9=
EXTT10=
EXTT11=
PLAYORDER=
